<svg width="33" height="33" viewBox="0 0 33 33" fill="none" xmlns="http://www.w3.org/2000/svg">
<path d="M17.5866 0.5H32.177C32.3984 0.5 32.5771 0.679752 32.5771 0.900127V15.4905C32.5771 15.6053 32.4827 15.6997 32.3679 15.6977C31.4011 15.6845 30.4567 15.5809 29.5427 15.3951C29.4462 15.3758 29.3771 15.2905 29.3771 15.192V5.96265L23.1528 12.187C23.0777 12.2621 22.9568 12.2692 22.8746 12.2012C22.1484 11.5979 21.4792 10.9297 20.8759 10.2036C20.8079 10.1213 20.814 10.0005 20.8902 9.92532L27.1145 3.70102H17.8841C17.7856 3.70102 17.7003 3.63196 17.681 3.53548C17.4962 2.62148 17.3926 1.67702 17.3794 0.710219C17.3784 0.594446 17.4718 0.5 17.5866 0.5ZM3.77813 8.49949C3.77813 5.8489 5.92703 3.7 8.57762 3.7H15.8358C15.9647 3.7 16.0612 3.58321 16.0379 3.45627C15.8784 2.56055 15.7901 1.64148 15.7779 0.704126C15.7779 0.5914 15.6875 0.5 15.5738 0.5H8.57762C4.15997 0.5 0.578125 4.08185 0.578125 8.49949V15.4946C0.578125 15.6073 0.669524 15.6987 0.78225 15.6997C1.71961 15.7109 2.63969 15.7993 3.53439 15.9587C3.66134 15.9811 3.77813 15.8856 3.77813 15.7566V8.49949ZM6.04077 29.3L12.2651 23.0757C12.3402 23.0005 12.3474 22.8797 12.2793 22.7974C11.6761 22.0713 11.0068 21.4021 10.2807 20.7998C10.1984 20.7318 10.0776 20.7379 10.0024 20.8141L3.77813 27.0384V17.808C3.77813 17.7095 3.70907 17.6242 3.61259 17.6049C2.6986 17.4191 1.75413 17.3155 0.787328 17.3023C0.672571 17.2992 0.578125 17.3937 0.578125 17.5084V32.0989C0.578125 32.3202 0.757877 32.499 0.978252 32.499H15.5687C15.6834 32.499 15.7779 32.4045 15.7759 32.2898C15.7626 31.323 15.6591 30.3785 15.4742 29.4645C15.4549 29.368 15.3696 29.299 15.2711 29.299H6.04077V29.3ZM29.3781 17.2424V24.4995C29.3781 27.1501 27.2292 29.299 24.5786 29.299H17.3205C17.1915 29.299 17.0951 29.4158 17.1184 29.5427C17.2779 30.4384 17.3662 31.3575 17.3784 32.2949C17.3794 32.4076 17.4708 32.499 17.5835 32.499H24.5797C28.9983 32.499 32.5792 28.9171 32.5792 24.4995V17.5034C32.5792 17.3906 32.4878 17.2992 32.375 17.2982C31.4377 17.2871 30.5176 17.1987 29.6229 17.0403C29.4949 17.0179 29.3781 17.1134 29.3781 17.2424ZM13.694 21.6468L21.7249 13.6158C21.8103 13.5305 21.8042 13.3914 21.7117 13.3122C21.011 12.7171 20.36 12.0671 19.7649 11.3664C19.6867 11.274 19.5476 11.2679 19.4623 11.3532L11.4313 19.3842C11.346 19.4695 11.3521 19.6086 11.4445 19.6878C12.1453 20.2819 12.7962 20.9329 13.3913 21.6336C13.4695 21.726 13.6087 21.7321 13.694 21.6468Z" fill="#D3B07C"/>
</svg>
