<svg width="24" height="24" viewBox="0 0 24 24" fill="none" xmlns="http://www.w3.org/2000/svg">
<path d="M17 12.505C17 13.33 16.331 14 15.504 14H15.496C14.669 14 14 13.33 14 12.505V12.495C14 11.67 14.669 11 15.496 11H15.504C16.331 11 17 11.67 17 12.495V12.505ZM13 10.008C13 10.556 12.556 11 12.008 11H11.992C11.444 11 11 10.556 11 10.008V9.992C11 9.444 11.444 9 11.992 9H12.008C12.556 9 13 9.444 13 9.992V10.008ZM13 15.01C13 15.557 12.557 16 12.01 16H11.99C11.443 16 11 15.557 11 15.01V14.99C11 14.443 11.443 14 11.99 14H12.01C12.557 14 13 14.443 13 14.99V15.01ZM10 12.514C10 13.335 9.334 14 8.514 14H8.486C7.666 14 7 13.335 7 12.514V12.486C7 11.666 7.666 11 8.486 11H8.514C9.334 11 10 11.666 10 12.486V12.514ZM22 6L15 2V4L18 7L16 9L12 5L8 9L6 7L9 4V2L2 6L6 11L2 15L5 19V15H7L8 20L10 22V18L12 20L14 18V22L16 20L17 15H19V19L22 15L18 11L22 6Z" fill="#555D64"/>
</svg>
