<svg width="18" height="18" viewBox="0 0 18 18" fill="none" xmlns="http://www.w3.org/2000/svg">
<path d="M5.83932 1C5.83932 1 10.2243 2.66757 10.2243 6.62397C10.2243 10.4591 3.93918 10.2722 3.93918 14.9694C3.93918 15.967 4.63515 17.3401 4.63515 17.3401C4.63515 17.3401 2 15.715 2 13.4476C2 9.57517 6.95565 11.118 6.95565 4.486C6.95565 2.01885 5.83932 1 5.83932 1ZM14.4478 8.78846C14.4478 10.2184 13.3422 12.5587 10.518 12.5587C6.30911 12.5587 5.72618 14.4448 5.72618 14.4448C4.98506 11.7594 12.5375 9.98879 12.5375 5.97359C12.5375 4.13959 11.6356 3.13211 11.6356 3.13211C11.6356 3.13211 14.4478 5.07741 14.4478 8.78846ZM6.55 15.7569C7.13818 14.0795 8.3917 13.7164 8.3917 13.7164C8.3917 13.7164 9.9394 14.2381 10.6177 14.2381C13.8849 14.2381 15.8462 10.2978 15.8462 10.2978C15.8462 10.2978 16.871 13.8739 13.5523 17.45C13.5523 17.45 11.6029 15.161 9.14315 15.161C7.65197 15.161 6.55 15.7569 6.55 15.7569Z" fill="#ADD2ED"/>
</svg>
