<svg width="14" height="18" viewBox="0 0 14 18" fill="none" xmlns="http://www.w3.org/2000/svg">
<path d="M9.28253 10.6438C8.61123 11.4423 0.0690746 11.3134 8.06907 11.3134L8.5337 10.1932L9.72143 9.25313C9.72143 9.25313 9.95383 9.8455 9.28253 10.6438ZM7.84333 16.1773C7.84333 16.1773 7.50347 15.6144 7.33355 15.333L6.99983 15.8469L6.6661 15.333C6.49618 15.6144 6.15632 16.1773 6.15632 16.1773C6.15632 16.1773 5.43883 15.2791 5.43883 14.2994C5.43883 13.32 5.6182 12.5065 5.6182 12.5065L6.10733 13.9879L6.49425 13.6983C6.49425 13.6983 6.60502 14.0521 6.99983 14.5698C7.39445 14.0521 7.50523 13.6983 7.50523 13.6983L7.89232 13.9879L8.38128 12.5065C8.38128 12.5065 8.56083 13.32 8.56083 14.2994C8.56083 15.2791 7.84333 16.1773 7.84333 16.1773ZM4.14978 9.25313L5.42413 10.1932L5.92287 11.4961C5.92287 11.4961 4.14978 11.2138 4.14978 9.25313ZM9.49358 0L9.02265 0.513975L9.19433 4.33213C9.19433 4.33213 10.2317 5.09723 10.2317 6.041C10.2317 6.73103 9.76798 7.22347 9.27623 7.22347C8.56765 7.22347 8.02585 6.47325 8.29395 5.55555L7.00017 3.37628L5.70587 5.55555C5.97397 6.47325 5.43217 7.22347 4.72377 7.22347C4.23202 7.22347 3.76828 6.73103 3.76828 6.041C3.76828 5.09723 4.8055 4.33213 4.8055 4.33213L4.97718 0.513975L4.50625 0C4.50625 3.44942 0 6.67048 0 10.2456C0 12.5109 2.26047 13.9452 2.26047 16.2181C2.26047 16.2181 2.6649 15.6441 2.6649 14.246C2.6649 12.8478 2.1504 12.7417 2.1504 11.8744C2.1504 11.0073 2.92723 10.1727 2.92723 10.1727C2.92723 11.6674 4.60985 12.9183 4.60985 13.6292C4.60985 14.613 5.48485 17.5 7 17.5C8.51497 17.5 9.39015 14.613 9.39015 13.6292C9.39015 12.9183 11.0726 11.6674 11.0726 10.1727C11.0726 10.1727 11.8494 11.0073 11.8494 11.8744C11.8494 12.7417 11.3349 12.8478 11.3349 14.246C11.3349 15.6441 11.7394 16.2181 11.7394 16.2181C11.7394 13.9452 14 12.5109 14 10.2456C14 6.67048 9.49358 3.44942 9.49358 0Z" fill="#C9BCDC"/>
</svg>
