<svg width="16" height="16" viewBox="0 0 16 16" fill="none" xmlns="http://www.w3.org/2000/svg">
<path fill-rule="evenodd" clip-rule="evenodd" d="M13 6.86C13 8 11.21 9 9 9C6.79 9 5 8 5 6.86V5.14C5 4 6.79 3 9 3C11.21 3 13 4 13 5.14V6.86Z" fill="#555D64"/>
<path fill-rule="evenodd" clip-rule="evenodd" d="M7 7.71C7.84765 7.66325 8.68818 7.88739 9.4 8.35V9.65C8.68818 10.1126 7.84765 10.3368 7 10.29C6.15235 10.3368 5.31182 10.1126 4.6 9.65V8.35C5.31182 7.88739 6.15235 7.66325 7 7.71V7.71ZM7 6C4.79 6 3 7 3 8.14V9.86C3 11 4.79 12 7 12C9.21 12 11 11 11 9.86V8.14C11 7 9.21 6 7 6Z" fill="#555D64"/>
</svg>
