<svg width="16" height="16" viewBox="0 0 16 16" fill="none" xmlns="http://www.w3.org/2000/svg">
<path d="M9.875 4C9.44089 4 9.04289 4.13756 8.69208 4.40887C8.35575 4.66898 8.13183 5.00028 8 5.24119C7.86817 5.00027 7.64425 4.66898 7.30792 4.40887C6.95711 4.13756 6.55911 4 6.125 4C4.91356 4 4 4.99089 4 6.30491C4 7.7245 5.13973 8.69577 6.86514 10.1661C7.15814 10.4158 7.49025 10.6989 7.83544 11.0007C7.88094 11.0406 7.93937 11.0625 8 11.0625C8.06063 11.0625 8.11906 11.0406 8.16456 11.0007C8.50978 10.6988 8.84188 10.4158 9.13505 10.166C10.8603 8.69577 12 7.7245 12 6.30491C12 4.99089 11.0864 4 9.875 4Z" fill="#555D64"/>
</svg>
