<svg width="18" height="18" viewBox="0 0 18 18" fill="none" xmlns="http://www.w3.org/2000/svg">
<path d="M8.18573 0C8.18573 0 8.68325 2.9099 8.23805 3.34337C7.79285 3.77685 4.27413 7.10675 4.27413 7.10675L3.1004 5.78095L2 9.82625C2 9.82625 3.6954 11.3893 4.48955 14.728L9 17L15.4652 12.0666L16 9.04103L14.7162 7.76562C14.7162 7.76562 14.9512 9.4052 14.3548 9.4052C13.7582 9.4052 12.6764 6.8957 11.8871 6.8957C11.0981 6.8957 10.4016 7.10115 8.9097 7.4508C7.71847 7.7301 7.26015 9.69868 7.12365 10.4808C7.09023 10.6729 7.17143 10.8668 7.33435 10.9798L8.9097 12.3478C8.9097 12.3478 10.3851 11.3783 10.3851 10.7238C10.3851 10.2216 9.14682 10.252 9.14682 9.30265C9.14682 8.75 9.6391 8.52985 10.2626 8.52985C11.9935 8.52985 12.6708 10.5721 12.6708 10.5721C11.4047 13.0378 8.9951 14.595 8.9951 14.595C8.9951 14.595 5.43648 12.1546 5.43648 10.632C5.43648 6.42723 10.3359 5.31125 10.3359 5.31125L10.9855 3.1598L8.18573 0Z" fill="#F26C23"/>
</svg>
