<svg width="18" height="18" viewBox="0 0 18 18" fill="none" xmlns="http://www.w3.org/2000/svg">
<path d="M16 11.272C16 9.95288 14.8713 9.44695 14.8713 9.44695C14.8713 9.44695 15.3822 8.4323 15.3822 7.64883C15.3822 4.91953 13.3391 2 9.91122 2C5.98422 2 4.41325 6.1566 4.41325 6.1566C4.41325 6.1566 3.93287 5.45257 4.08425 3.76102C4.08425 3.76102 2 5.52223 2 9.19355C2 12.1383 4.05538 15.65 7.7512 15.65C10.239 15.65 11.9101 13.5547 11.9101 11.2869C11.9101 9.14192 10.161 7.87248 8.52313 7.87248C7.45353 7.87248 6.56768 8.64755 6.56768 8.64755C6.86745 7.1303 8.50195 6.52375 8.50195 6.52375C9.09292 3.72742 12.5068 4.04943 12.5068 4.04943C12.5068 4.04943 11.0801 4.79737 10.5885 6.1524C10.5885 6.1524 14.0211 7.34152 14.0211 11.1976C14.0211 13.9444 12.2139 15.4073 12.2139 15.4073C12.2139 15.4073 13.9306 14.5115 15.0858 12.6362C15.324 12.9407 15.3471 13.3806 15.3471 13.3806C15.3471 13.3806 16 12.5912 16 11.272Z" fill="#67C4B0"/>
</svg>
